PathFileType	4	(X/Y/Z)	D:\TRACE\v60_Jaco2_6-2-23\BothDRS_Motion2_1-platform.trc
DataRate	CameraRate	NumFrames	NumMarkers	Units	OrigDataRate	OrigDataStartFrame	OrigNumFrames
100.00	100.00	      30	5	mm	100.00	4688	      7500
Frame#	Time	Left_Front			Right_Front			Left_Aft			Right_Aft			Post			
		X1	Y1	Z1	X2	Y2	Z2	X3	Y3	Z3	X4	Y4	Z4	X5	Y5	Z5	

4688	46.870	-831.05890	7.76548	-639.32245	738.93951	8.10883	-644.02655	-739.12311	8.58672	496.12048	702.43286	7.79893	505.39133	-44.68874	1305.39246	-966.23846	
4689	46.880	-832.29181	6.31146	-639.29352	737.92859	6.89575	-644.35028	-740.34247	10.07934	495.74786	701.73529	8.88112	504.98566	-46.16551	1303.44165	-969.59723	
4690	46.890	-833.27649	4.64404	-639.70721	736.90131	5.57128	-644.96136	-741.12042	10.96872	495.35327	700.67865	10.13331	504.90558	-46.86734	1301.07312	-972.43646	
4691	46.900	-834.23151	2.93674	-639.95367	736.13544	3.90340	-645.16260	-742.27283	12.27495	494.96533	700.11005	11.28262	504.51324	-47.85748	1299.12207	-975.02441	
4692	46.910	-835.15051	1.47969	-640.41394	735.15106	2.56319	-645.42230	-743.19641	13.00916	494.54474	699.03412	12.20249	504.11276	-48.75104	1296.71167	-977.78381	
4693	46.920	-835.85687	0.68107	-641.45868	734.07135	1.12861	-645.81836	-744.12219	14.05084	494.25525	697.47217	13.08153	503.81458	-49.75793	1294.77832	-980.55023	
4694	46.930	-836.84027	-1.17581	-640.98273	733.15680	-0.28250	-646.16565	-744.90912	14.90511	493.99670	696.70807	14.03973	503.47693	-50.98284	1292.73877	-983.26923	
4695	46.940	-837.90576	-2.65081	-641.34100	732.42456	-1.74219	-646.37103	-745.96594	16.14527	493.74265	696.07672	15.23764	503.30698	-51.80594	1290.56409	-986.50720	
4696	46.950	-838.86292	-4.20711	-641.34692	731.63379	-2.87928	-646.60352	-746.55200	16.80852	493.39520	695.26392	16.40591	503.01483	-52.89752	1288.42737	-989.51233	
4697	46.960	-839.30988	-5.46742	-641.76440	730.56989	-4.52997	-647.02710	-747.95313	18.14675	493.16934	694.63226	17.34694	502.74347	-53.63192	1286.44629	-992.81360	
4698	46.970	-840.40314	-6.80325	-642.25702	729.74109	-5.70752	-647.13025	-748.81030	18.97041	492.84949	693.62665	18.07871	502.42960	-54.26225	1284.32410	-996.15869	
4699	46.980	-841.01727	-8.09182	-642.64722	729.03925	-7.24159	-647.47089	-749.47705	19.85028	492.34134	692.49396	18.85912	501.93008	-55.05991	1282.27136	-999.38910	
4700	46.990	-841.72076	-9.74305	-642.76447	728.10114	-8.55098	-647.78973	-750.51587	21.11222	492.17093	691.82416	19.83556	501.44189	-55.87614	1280.14319	-1002.46295	
4701	47.000	-842.90247	-10.44949	-642.92285	727.46027	-9.46850	-648.04761	-751.46912	22.12189	492.08484	691.39612	21.04954	501.33572	-56.78576	1278.41089	-1005.26227	
4702	47.010	-843.64294	-12.10852	-643.19214	726.61774	-11.18830	-648.32343	-752.25201	22.96646	491.65411	690.47015	22.03633	500.96759	-57.43213	1276.18372	-1008.23102	
4703	47.020	-844.09912	-13.41786	-643.03931	725.93799	-12.26799	-648.57239	-752.12067	22.83551	491.03589	689.81805	22.81320	500.64905	-58.09925	1274.20276	-1010.78833	
4704	47.030	-844.78497	-14.61937	-643.94263	725.22772	-13.57547	-648.90015	-752.89673	23.81136	490.72510	688.93243	23.69199	500.27924	-58.59812	1272.03040	-1013.27197	
4705	47.040	-845.44427	-15.92951	-644.32098	724.50488	-14.98228	-649.30591	-754.01318	25.25249	490.24142	688.11041	24.31873	499.72452	-59.21019	1270.32556	-1015.74017	
4706	47.050	-845.72394	-17.32372	-644.38782	724.21924	-16.10343	-649.09778	-754.33441	25.92944	490.12885	687.38867	25.22014	499.34979	-60.00584	1268.09119	-1018.23108	
4707	47.060	-846.86774	-18.54153	-644.67474	723.19879	-17.47602	-649.69617	-754.73254	26.71097	489.73602	686.93866	26.65337	499.38837	-60.75607	1266.30334	-1020.74042	
4708	47.070	-847.49072	-19.85478	-644.75354	722.79370	-18.63495	-649.73529	-755.47913	27.59632	489.34955	686.82465	27.50079	499.23004	-61.43883	1264.24524	-1023.25702	
4709	47.080	-847.85223	-21.32577	-645.14191	722.21234	-20.13342	-650.30463	-755.94629	28.37099	488.97720	685.67419	28.21175	498.99811	-61.74041	1262.31580	-1025.40918	
4710	47.090	-848.54675	-22.54592	-645.26099	722.04077	-21.04322	-650.28418	-756.70959	29.26417	488.57437	685.31299	29.03754	498.37344	-62.39400	1260.51294	-1028.06726	
4711	47.100	-848.88751	-23.49216	-645.63104	721.10620	-22.37397	-650.68005	-757.69647	30.59326	488.53049	684.42108	29.80562	498.04266	-62.79443	1258.71667	-1031.03381	
4712	47.110	-849.39679	-24.96058	-645.65002	720.91058	-23.61882	-650.70081	-757.82007	31.24523	488.23251	684.75012	30.75260	497.71396	-63.29756	1256.76978	-1033.87256	
4713	47.120	-849.92090	-26.03375	-645.69250	720.23425	-24.59364	-651.04468	-758.29132	32.12302	488.08835	684.37640	31.71930	497.38754	-63.53244	1254.91248	-1036.58069	
4714	47.130	-850.16565	-26.98973	-646.05994	719.92419	-25.73876	-651.20117	-758.59827	32.85559	487.89966	684.14734	32.31625	497.08722	-64.14612	1253.33423	-1039.18066	
4715	47.140	-850.52679	-28.33413	-646.20288	719.75623	-27.05697	-651.36859	-758.92987	33.49818	487.49945	683.64960	33.08786	496.71118	-64.27716	1251.17444	-1041.71118	
4716	47.150	-850.81989	-29.61191	-646.52991	719.41595	-27.89504	-651.60559	-759.21655	34.15954	487.16913	683.25043	33.94532	496.38455	-64.69532	1249.63696	-1044.09717	
4717	47.160	-850.96191	-30.06331	-646.89771	719.13123	-28.49073	-651.97876	-759.30414	34.66353	486.68146	683.09070	34.77034	496.01672	-64.95359	1247.61340	-1046.53772	
